<?xml version="1.0" standalone="no"?>
<!DOCTYPE svg PUBLIC "-//W3C//DTD SVG 20010904//EN"
 "http://www.w3.org/TR/2001/REC-SVG-20010904/DTD/svg10.dtd">
<svg version="1.0" xmlns="http://www.w3.org/2000/svg"
 width="3300.000000pt" height="2550.000000pt" viewBox="0 0 3300.000000 2550.000000"
 preserveAspectRatio="xMidYMid meet">

<g transform="translate(0.000000,2550.000000) scale(0.100000,-0.100000)"
fill="#000000" stroke="none">
<path d="M7965 19564 c-405 -26 -828 -105 -1174 -221 -998 -333 -1826 -1004
-2384 -1931 -358 -594 -562 -1242 -639 -2027 -19 -198 -16 -749 6 -965 100
-1005 454 -1786 1111 -2459 214 -219 443 -414 683 -581 34 -24 62 -47 62 -50
0 -3 -30 -21 -67 -39 -287 -140 -544 -421 -728 -794 -110 -223 -162 -409 -172
-624 -5 -111 -3 -139 11 -177 32 -84 114 -125 182 -93 64 31 109 110 176 312
49 151 140 341 204 425 63 84 224 251 295 305 169 131 345 187 584 188 163 0
313 -27 505 -90 l115 -38 -3 -38 c-2 -21 -6 -77 -11 -125 -9 -105 3 -176 37
-217 64 -78 206 -158 347 -196 63 -17 109 -22 215 -22 119 -1 146 3 225 27 50
15 114 38 144 51 l53 25 262 -151 c143 -84 511 -301 816 -484 305 -183 607
-362 670 -397 509 -288 982 -485 1375 -573 205 -46 328 -58 545 -52 388 9 687
81 1025 247 340 167 515 333 515 491 0 68 -23 104 -78 118 -56 16 -136 -9
-392 -121 -241 -106 -384 -145 -570 -154 -193 -10 -367 36 -647 171 -253 122
-437 236 -848 525 -497 349 -889 596 -1213 763 -95 49 -172 90 -170 92 2 2 55
13 118 25 171 32 475 112 650 170 944 315 1689 879 2227 1685 424 636 658
1366 714 2225 14 228 7 678 -16 880 -135 1223 -672 2240 -1559 2954 -650 523
-1434 826 -2380 921 -143 15 -690 27 -821 19z m417 -434 c702 -48 1281 -269
1808 -689 124 -99 373 -348 482 -481 554 -682 985 -1684 1107 -2575 55 -403
56 -838 1 -1291 -138 -1139 -649 -2025 -1485 -2576 -135 -89 -429 -238 -580
-294 -253 -93 -554 -165 -835 -200 -243 -30 -898 -29 -928 1 -4 4 -172 624
-206 758 -11 47 -72 104 -129 123 -29 9 -53 18 -55 19 -1 1 5 18 13 38 30 72
14 170 -39 240 -16 20 -25 41 -20 48 4 6 100 120 213 253 113 133 246 289 294
348 72 88 94 108 120 112 189 30 274 46 541 107 360 82 536 113 582 104 18 -3
56 -25 84 -49 77 -66 107 -71 390 -70 293 2 393 18 528 85 243 120 443 501
377 718 l-18 59 34 41 c27 34 34 52 37 101 6 85 -26 146 -127 243 -84 80 -155
131 -349 248 -190 114 -231 151 -298 271 -68 119 -120 251 -140 354 -13 68
-12 78 7 140 l21 67 64 -7 c35 -4 64 -3 64 2 0 4 -26 66 -59 137 -32 72 -70
157 -83 190 -14 33 -32 76 -41 95 l-15 35 123 -4 c301 -8 488 90 630 330 61
104 84 168 85 238 0 96 -44 141 -180 182 -41 12 -112 43 -157 69 -114 65 -217
97 -359 111 -144 14 -275 7 -369 -20 l-70 -20 35 29 c19 16 102 71 184 122 82
51 175 116 207 146 70 64 119 155 119 218 0 92 -23 104 -200 104 -387 0 -627
-80 -925 -310 -136 -105 -139 -106 -228 -70 -122 49 -199 63 -337 63 -124 0
-278 -22 -392 -57 -26 -8 -50 -11 -53 -7 -11 19 45 185 130 381 45 106 47 146
9 178 -25 22 -34 24 -84 19 -127 -14 -335 -100 -455 -189 -193 -144 -285 -310
-285 -516 l0 -95 -257 7 c-282 8 -343 2 -405 -39 -66 -44 -91 -94 -96 -190 -5
-101 25 -218 94 -364 24 -51 44 -97 44 -101 0 -4 -25 -25 -55 -46 l-56 -38
-119 29 -119 29 -130 -58 c-72 -32 -136 -64 -142 -72 -6 -8 -26 -60 -43 -116
l-32 -101 -54 -19 c-102 -35 -359 -98 -504 -123 -165 -28 -417 -55 -517 -55
l-69 0 0 113 c0 141 15 337 40 534 98 752 373 1398 811 1908 84 98 278 290
374 371 627 529 1503 788 2447 724z m-515 -1742 c-118 -288 -137 -358 -137
-495 0 -95 2 -104 18 -99 106 31 345 87 411 96 50 8 126 11 190 7 108 -6 142
-15 301 -83 55 -23 82 -28 183 -32 85 -3 115 -8 108 -15 -6 -6 -11 -25 -11
-43 0 -37 41 -84 74 -84 19 0 21 -5 19 -32 -9 -85 108 -158 254 -158 l37 0
-26 -27 c-14 -16 -33 -43 -43 -62 l-17 -33 56 -50 c119 -106 341 -443 426
-645 l40 -97 -29 -56 c-36 -69 -71 -184 -71 -237 0 -22 25 -117 55 -212 42
-133 68 -197 117 -283 57 -100 70 -116 143 -173 44 -34 134 -95 200 -135 239
-146 370 -256 405 -339 12 -29 11 -35 -8 -59 -12 -15 -33 -44 -49 -65 l-27
-39 28 -81 28 -82 -22 -85 c-48 -187 -180 -374 -310 -438 -95 -47 -180 -61
-420 -72 -261 -12 -296 -7 -376 56 -32 24 -65 44 -74 44 -28 0 -29 10 -4 35
13 13 24 32 24 41 0 14 -7 15 -44 10 -57 -9 -112 13 -126 49 -15 40 -12 45 20
29 57 -29 143 8 143 62 0 16 -18 58 -40 94 -56 92 -75 146 -76 215 -1 126 54
210 169 256 48 19 78 23 158 24 57 0 101 4 103 10 1 6 -31 28 -74 49 -108 56
-214 138 -313 242 -144 152 -237 304 -341 557 -32 78 -67 152 -78 163 -27 28
-77 37 -132 25 -24 -6 -45 -8 -47 -7 -1 2 15 38 38 80 33 63 40 87 40 132 0
48 -4 60 -29 85 -20 20 -40 29 -61 29 -43 0 -47 22 -11 58 37 36 40 73 9 102
-29 26 -85 26 -149 -1 -68 -30 -82 -18 -62 51 11 38 12 58 3 89 -17 65 -41 75
-165 69 -84 -5 -105 -3 -109 8 -3 8 3 23 14 34 29 29 25 71 -7 103 -36 34
-107 64 -270 116 -168 53 -186 69 -140 127 36 47 77 81 175 146 50 33 92 62
92 62 0 1 -15 0 -34 -2 -48 -6 -139 15 -177 41 -43 29 -77 97 -91 181 l-11 68
-27 -58 c-15 -33 -42 -72 -59 -89 -30 -28 -37 -30 -110 -30 -77 0 -78 0 -152
51 l-74 52 -13 78 c-21 127 -11 213 37 309 51 103 68 125 159 197 81 64 179
118 282 154 76 26 94 29 87 12z m1993 -177 c0 -19 -67 -96 -117 -136 -28 -22
-111 -77 -184 -123 -83 -52 -189 -131 -279 -208 -80 -68 -148 -124 -152 -124
-12 0 -9 34 6 78 l15 40 -29 -10 c-16 -5 -41 -8 -57 -6 -24 3 -28 8 -31 38 -2
19 2 52 8 73 6 22 10 40 8 42 -2 2 -43 -1 -91 -7 -53 -6 -92 -7 -98 -1 -9 9
40 45 200 147 180 115 356 178 546 194 139 13 255 14 255 3z m-9 -571 c91 -9
121 -18 239 -67 74 -31 142 -62 151 -70 9 -7 49 -23 89 -34 86 -24 130 -45
130 -63 0 -64 -81 -214 -165 -304 -97 -105 -206 -145 -390 -146 -60 0 -140 4
-177 8 l-66 7 -50 67 c-27 37 -84 101 -126 143 -85 86 -85 86 19 96 66 6 136
-9 155 -32 20 -24 -2 -60 -49 -81 -22 -11 -39 -23 -38 -29 7 -22 81 -47 169
-56 151 -14 290 6 391 57 57 29 132 96 153 136 14 27 13 28 -29 52 -277 163
-616 196 -873 86 -26 -11 -49 -19 -51 -17 -2 2 17 27 43 56 l46 51 -44 1 c-23
0 -63 4 -88 7 -53 9 -58 6 125 69 212 72 264 80 436 63z m-2808 -35 c187 -33
372 -122 520 -252 95 -84 100 -125 22 -200 -53 -51 -55 -55 -40 -76 54 -77
-51 -157 -226 -173 -38 -4 -69 -9 -69 -11 0 -2 7 -15 16 -29 9 -13 15 -26 13
-29 -8 -8 -211 15 -277 31 -89 22 -197 73 -248 117 -31 27 -60 72 -113 179
-127 255 -143 409 -46 449 35 14 356 10 448 -6z m2972 -229 c39 -9 95 -24 126
-33 l55 -18 -290 0 c-295 0 -395 -9 -474 -42 -31 -13 -37 -13 -49 0 -13 13 -5
18 63 45 75 28 187 56 264 66 63 8 233 -3 305 -18z m-3702 -436 c21 -8 21 -9
-5 -9 -66 -2 -124 -93 -182 -284 -78 -256 -117 -561 -118 -912 -1 -492 77
-919 244 -1340 212 -534 602 -1007 1072 -1300 76 -47 86 -61 64 -83 -9 -9 -29
-2 -87 29 -253 135 -583 456 -813 794 -107 156 -152 231 -230 387 -320 640
-416 1346 -287 2113 25 150 48 251 100 436 l40 146 42 21 c43 22 107 23 160 2z
m587 -145 c23 -8 56 -15 72 -15 36 0 36 1 -17 -117 -89 -201 -122 -459 -95
-738 39 -401 209 -946 370 -1186 61 -91 202 -228 287 -278 157 -93 308 -132
513 -131 108 0 166 -7 430 -53 168 -30 298 -57 290 -60 -23 -10 -371 -86 -489
-108 -58 -10 -127 -19 -154 -19 -43 0 -52 -4 -77 -32 -15 -18 -115 -137 -221
-264 -107 -127 -246 -291 -309 -366 l-115 -135 -56 -6 c-31 -2 -70 -12 -88
-21 -30 -16 -33 -16 -64 5 -134 94 -386 344 -505 502 -74 98 -194 283 -231
356 l-20 39 31 13 c49 20 137 117 192 210 93 155 217 487 231 614 9 76 -10
127 -54 150 -17 8 -82 22 -143 30 -150 20 -209 39 -263 87 -101 89 -137 205
-138 443 0 189 17 306 69 467 52 160 65 170 202 148 175 -29 241 70 297 443 3
20 7 37 9 37 2 0 23 -7 46 -15z m1250 -190 c111 -19 165 -48 209 -110 l35 -50
-50 46 c-69 64 -79 68 -167 67 -64 -1 -84 -5 -125 -28 -117 -68 -141 -237 -48
-347 15 -18 23 -33 17 -33 -16 0 -159 67 -191 90 -17 12 -30 30 -30 40 0 10
38 54 87 99 80 74 85 81 60 81 -31 0 -67 16 -67 29 0 5 21 6 48 3 46 -5 47 -4
30 15 -35 38 -26 45 75 58 42 6 46 8 37 25 -10 18 -13 30 -7 30 1 0 40 -7 87
-15z m127 -230 c92 -42 120 -124 64 -184 -16 -17 -38 -31 -50 -31 -19 0 -21 6
-21 50 0 47 -2 51 -39 74 -50 32 -53 38 -45 81 8 42 20 44 91 10z m210 -107
c22 -24 46 -68 57 -105 7 -21 4 -23 -26 -23 -57 0 -78 23 -78 84 0 72 11 82
47 44z m-282 -52 c19 -29 10 -54 -21 -62 -30 -8 -54 11 -54 42 0 43 51 57 75
20z m-2549 -1361 c27 -13 77 -53 110 -87 58 -59 64 -70 99 -178 210 -647 658
-1264 1153 -1587 97 -64 97 -62 -4 -159 -39 -37 -72 -79 -85 -110 -12 -27 -34
-65 -49 -84 -28 -36 -206 -323 -212 -342 -9 -27 -355 218 -548 388 -152 134
-344 330 -335 343 3 6 21 11 40 11 100 0 312 104 429 211 79 72 110 133 110
215 0 137 -102 265 -334 422 -305 206 -474 376 -548 555 -73 178 -12 420 109
426 8 1 37 -10 65 -24z m1749 -1689 c105 -44 94 -208 -15 -241 -20 -6 -15 2
23 35 43 38 48 47 45 78 -2 29 -11 42 -44 67 -22 16 -54 40 -70 52 l-29 22 28
0 c15 1 43 -5 62 -13z m-135 -232 c0 -21 -47 -17 -70 6 -32 32 -23 40 25 23
25 -8 45 -21 45 -29z m207 -100 c101 -21 148 -40 161 -67 6 -12 29 -89 51
-172 107 -403 231 -877 231 -883 0 -4 -21 25 -46 63 -98 148 -207 284 -240
300 -76 36 -130 -29 -224 -272 -17 -46 -34 -83 -37 -83 -3 0 -3 114 0 253 7
284 31 557 50 569 22 13 163 48 196 48 28 0 32 3 26 18 -4 9 -9 24 -12 33 -4
14 -16 11 -77 -21 -139 -72 -271 -73 -430 -5 -44 19 -81 33 -83 32 -1 -2 -5
-17 -9 -33 l-6 -30 69 0 c52 0 81 -6 124 -26 l55 -25 13 -138 c22 -248 32
-508 25 -632 -6 -107 -9 -123 -24 -123 -56 0 -97 124 -125 379 -21 203 -64
272 -171 275 -24 0 -45 6 -47 11 -8 20 71 382 88 409 21 32 116 89 193 116 70
24 148 25 249 4z m-465 -664 c25 -52 36 -143 43 -360 8 -212 21 -303 58 -384
31 -68 89 -132 133 -148 28 -10 34 -17 34 -40 0 -25 -3 -28 -33 -28 -93 0
-272 67 -359 135 -77 61 -82 96 -43 360 56 379 74 469 97 488 29 25 50 18 70
-23z m615 -284 c45 -51 121 -185 194 -344 l53 -113 -25 -24 c-69 -69 -311
-179 -410 -187 l-34 -3 -13 140 c-14 156 -11 184 40 345 49 153 95 230 137
230 11 0 37 -20 58 -44z"/>
<path d="M10330 14204 c-14 -3 -70 -16 -125 -29 -127 -31 -242 -45 -371 -45
-77 0 -105 -4 -114 -15 -6 -8 -9 -18 -6 -23 5 -9 447 -7 528 3 26 3 77 17 113
30 36 14 81 25 100 25 25 0 33 4 29 14 -10 26 -99 49 -154 40z"/>
<path d="M9462 13965 c-98 -43 -132 -97 -132 -209 l0 -76 43 -26 c23 -14 58
-41 77 -59 23 -22 50 -35 77 -40 l42 -7 -32 35 c-50 54 -101 146 -101 183 0
18 8 41 17 52 9 10 17 27 17 38 0 26 27 64 46 64 8 0 17 -8 21 -17 16 -46 33
-53 115 -52 84 2 121 -13 133 -51 11 -33 -20 -58 -79 -65 -56 -7 -110 7 -104
28 3 6 21 13 42 15 44 4 43 17 -5 45 -68 40 -132 -12 -127 -102 4 -62 38 -86
121 -86 88 1 131 24 163 88 52 105 21 152 -115 169 -62 8 -81 14 -77 24 3 8
-4 18 -14 24 -11 6 -20 17 -20 25 0 20 -63 19 -108 0z"/>
<path d="M10020 13394 c-47 -13 -156 -35 -244 -49 -87 -13 -160 -26 -163 -28
-11 -12 73 -30 162 -34 75 -4 114 -1 154 11 30 9 86 16 125 17 65 0 79 4 166
49 52 27 92 49 87 49 -4 1 -55 -10 -114 -24 -58 -14 -108 -24 -110 -22 -2 2 6
12 17 22 20 18 27 36 13 34 -5 0 -46 -12 -93 -25z"/>
<path d="M6720 16501 c-20 -4 -41 -11 -48 -15 -24 -15 -11 -71 43 -182 100
-207 221 -304 430 -348 28 -6 27 -5 -10 16 -74 43 -71 98 7 161 37 30 38 30
59 11 27 -24 173 -33 220 -14 67 28 12 77 -91 80 l-45 2 40 13 c22 8 63 14 90
15 l50 2 -80 38 c-130 63 -308 99 -486 100 l-96 0 -7 -31 c-3 -17 -10 -28 -14
-25 -13 8 -35 83 -29 99 13 34 183 28 341 -13 99 -25 259 -89 336 -134 33 -20
60 -30 60 -24 0 39 -177 148 -328 202 -134 48 -331 69 -442 47z"/>
<path d="M7267 11781 c-8 -9 -26 -12 -62 -7 -40 4 -55 2 -75 -14 -30 -24 -22
-32 60 -57 117 -35 306 -14 375 41 l29 23 -23 13 c-18 9 -34 9 -66 1 -53 -13
-95 -14 -95 -2 0 16 -130 18 -143 2z"/>
<path d="M22960 19393 c-53 -8 -109 -35 -126 -60 -10 -16 -19 -53 -21 -92 -3
-53 0 -72 16 -98 22 -35 118 -86 191 -102 243 -53 304 -76 415 -155 83 -60
206 -192 256 -276 80 -136 111 -266 129 -551 8 -123 10 -1036 8 -3119 -4
-2724 -5 -2954 -21 -3060 -43 -288 -137 -483 -315 -652 -72 -69 -133 -108
-287 -186 -188 -94 -230 -131 -246 -215 -11 -60 6 -115 49 -156 l36 -34 131 6
c71 3 238 13 370 21 422 27 706 36 1285 43 610 6 1054 -3 1785 -39 575 -28
1037 -30 1193 -5 368 58 617 181 857 422 209 209 371 480 484 809 100 291 104
489 9 559 -55 41 -124 -9 -299 -220 -242 -290 -414 -437 -654 -560 -311 -159
-664 -274 -1135 -372 -587 -121 -1353 -163 -1741 -96 -300 52 -443 172 -510
428 -10 39 -24 135 -30 212 -16 212 -7 6201 10 6350 34 306 92 453 236 600 84
85 149 123 354 205 170 68 215 93 254 140 34 39 41 67 35 132 -5 43 -11 57
-41 84 -50 46 -91 49 -323 25 -752 -77 -1189 -80 -1909 -11 -290 28 -384 33
-445 23z"/>
<path d="M13742 19379 c-90 -17 -172 -87 -172 -146 0 -41 28 -92 62 -113 39
-24 68 -33 203 -61 332 -70 521 -183 653 -393 67 -105 98 -255 113 -541 7
-132 9 -1227 6 -3235 -3 -2763 -5 -3046 -20 -3155 -57 -409 -205 -596 -587
-738 -192 -72 -235 -97 -268 -156 -26 -46 -29 -121 -6 -156 25 -39 107 -85
160 -91 35 -4 114 7 284 39 562 109 726 115 1660 68 1276 -66 1915 -50 2526
60 1135 204 2065 738 2717 1560 504 636 783 1371 877 2309 18 173 24 686 11
880 -57 839 -287 1543 -694 2115 -242 341 -583 678 -927 916 -575 398 -1275
658 -2085 773 -551 79 -981 89 -2045 51 -1094 -40 -1449 -39 -2095 5 -318 22
-312 21 -373 9z m3513 -349 c1147 -97 2010 -489 2709 -1229 712 -754 1085
-1816 1086 -3091 0 -1258 -374 -2232 -1095 -2850 -497 -425 -1093 -657 -1915
-742 -80 -8 -256 -13 -485 -12 -307 0 -387 4 -544 23 -464 56 -846 154 -1117
286 -149 72 -231 138 -259 208 -51 127 -49 -58 -52 3382 -3 2103 0 3241 6
3340 27 392 142 560 436 634 111 28 276 51 441 61 163 10 617 4 789 -10z"/>
<path d="M28942 10980 c-144 -29 -241 -149 -242 -296 0 -121 68 -227 179 -278
65 -29 178 -29 247 2 200 90 241 357 78 501 -68 59 -175 88 -262 71z m175 -62
c95 -44 163 -165 149 -266 -22 -160 -191 -268 -343 -218 -213 71 -249 360 -59
471 78 46 173 51 253 13z"/>
<path d="M28880 10691 l0 -171 30 0 30 0 0 70 0 70 35 0 c35 0 37 -3 68 -70
31 -68 33 -69 70 -70 l37 0 -35 70 c-38 76 -42 90 -22 90 8 0 24 11 36 24 33
35 26 101 -12 130 -24 18 -46 22 -133 24 l-104 4 0 -171z m175 117 c33 -15 43
-53 20 -78 -14 -16 -31 -20 -77 -20 l-58 0 0 55 0 55 45 0 c24 0 56 -5 70 -12z"/>
<path d="M13550 9937 c-56 -18 -135 -104 -154 -167 -37 -125 -46 -521 -16
-680 19 -100 71 -179 142 -216 50 -26 145 -37 218 -24 154 27 223 117 237 312
l6 88 -97 0 -96 0 0 -50 c0 -129 -36 -190 -112 -190 -97 0 -110 37 -116 331
-5 236 6 374 33 415 21 33 79 47 121 29 40 -17 62 -56 70 -129 l7 -56 90 0 90
0 -6 73 c-16 198 -104 278 -301 276 -45 -1 -97 -6 -116 -12z"/>
<path d="M26095 9852 c-27 -47 -51 -90 -53 -94 -2 -5 16 -8 39 -8 41 0 48 5
140 95 l96 95 -86 0 -86 -1 -50 -87z"/>
<path d="M14787 9923 c-4 -3 -7 -242 -7 -530 l0 -523 90 0 90 0 0 530 0 530
-83 0 c-46 0 -87 -3 -90 -7z"/>
<path d="M15114 9917 c-3 -8 -4 -45 -2 -83 l3 -69 88 -3 87 -3 0 86 0 85 -85
0 c-63 0 -87 -4 -91 -13z"/>
<path d="M15780 9768 l0 -162 -34 33 c-56 54 -151 63 -221 20 -71 -42 -95
-141 -95 -389 0 -312 40 -407 175 -418 70 -6 118 12 155 56 l30 37 0 -38 0
-37 85 0 85 0 -2 528 -3 527 -87 3 -88 3 0 -163z m-55 -244 c36 -14 48 -64 53
-215 6 -187 -2 -254 -34 -286 -33 -33 -79 -28 -108 10 -20 27 -21 41 -21 237
0 207 0 209 24 234 24 25 53 32 86 20z"/>
<path d="M17107 9923 c-4 -3 -7 -76 -7 -162 0 -144 -1 -154 -16 -133 -38 55
-158 74 -225 36 -80 -46 -117 -212 -106 -469 12 -251 56 -334 186 -343 71 -5
124 17 152 62 l19 31 0 -37 0 -38 85 0 85 0 0 530 0 530 -83 0 c-46 0 -87 -3
-90 -7z m-34 -425 c26 -35 43 -222 33 -351 -7 -72 -12 -93 -33 -117 -26 -31
-59 -38 -93 -20 -34 18 -44 76 -44 255 -1 224 14 269 88 262 18 -1 37 -12 49
-29z"/>
<path d="M19448 9924 c-5 -4 -8 -243 -8 -531 l0 -523 95 0 95 0 2 223 3 222
120 5 c101 5 128 9 170 30 101 51 142 146 133 316 -8 139 -49 207 -148 244
-39 15 -450 27 -462 14z m350 -160 c52 -20 67 -51 67 -139 0 -120 -28 -149
-158 -161 l-77 -7 0 162 0 161 65 0 c35 0 82 -7 103 -16z"/>
<path d="M21627 9923 c-4 -3 -7 -76 -7 -162 0 -144 -1 -154 -16 -133 -38 55
-158 74 -225 36 -80 -45 -118 -215 -106 -469 12 -242 55 -329 170 -342 70 -8
113 4 152 43 l35 35 0 -31 0 -30 85 0 85 0 0 530 0 530 -83 0 c-46 0 -87 -3
-90 -7z m-38 -417 c30 -32 45 -155 39 -316 -7 -160 -34 -206 -114 -186 -46 12
-57 59 -58 256 -1 226 13 269 85 270 14 0 35 -10 48 -24z"/>
<path d="M25220 9400 l0 -530 270 0 270 0 0 90 0 90 -175 0 -175 0 0 440 0
440 -95 0 -95 0 0 -530z"/>
<path d="M23250 9775 l0 -105 -35 0 -35 0 0 -70 0 -70 35 0 35 0 0 -272 c0
-156 5 -289 10 -310 19 -67 87 -97 190 -83 l50 7 0 69 c0 60 -2 69 -18 69 -11
0 -26 8 -35 18 -15 16 -17 49 -17 260 l0 242 35 0 35 0 0 70 0 70 -35 0 -35 0
0 105 0 105 -90 0 -90 0 0 -105z"/>
<path d="M27170 9775 l0 -105 -35 0 -35 0 0 -70 0 -70 34 0 35 0 3 -297 c3
-322 5 -332 58 -352 48 -19 81 -23 135 -16 l55 6 0 70 c0 61 -2 69 -19 69 -48
0 -51 15 -51 276 l0 244 35 0 35 0 0 70 0 70 -35 0 -35 0 0 105 0 105 -90 0
-90 0 0 -105z"/>
<path d="M17957 9680 c-79 -14 -131 -51 -164 -117 -27 -56 -28 -63 -31 -245
-5 -228 7 -309 51 -375 43 -62 92 -87 186 -92 106 -5 173 12 220 57 43 41 71
116 71 189 l0 43 -84 0 -83 0 -7 -49 c-8 -62 -38 -101 -76 -101 -68 0 -91 37
-98 162 l-5 88 178 0 177 0 -4 134 c-3 125 -5 137 -33 192 -26 50 -38 62 -85
86 -62 30 -140 41 -213 28z m132 -166 c16 -20 21 -41 21 -85 l0 -59 -86 0 -86
0 4 59 c6 83 27 111 83 111 35 0 47 -5 64 -26z"/>
<path d="M18725 9681 c-43 -11 -71 -27 -94 -56 l-20 -26 -3 33 -3 33 -87 3
-88 3 0 -401 0 -400 89 0 90 0 3 304 3 304 24 26 c27 28 66 34 95 13 30 -22
36 -83 36 -369 l0 -278 85 0 86 0 -3 353 c-3 349 -3 352 -26 390 -13 21 -36
44 -50 51 -36 18 -100 26 -137 17z"/>
<path d="M20495 9681 c-51 -13 -74 -30 -110 -84 l-35 -52 0 63 0 62 -85 0 -85
0 0 -400 0 -400 90 0 90 0 0 245 c0 264 5 296 51 329 14 9 43 16 71 16 l48 0
0 115 c0 63 -1 115 -2 114 -2 -1 -16 -4 -33 -8z"/>
<path d="M20819 9680 c-62 -11 -103 -33 -134 -75 -44 -57 -57 -116 -62 -291
-9 -260 22 -377 113 -430 46 -27 57 -29 154 -29 97 0 109 2 152 27 90 54 125
187 115 442 -8 207 -39 288 -127 332 -51 26 -143 36 -211 24z m135 -173 c20
-27 21 -41 21 -235 0 -164 -3 -213 -15 -237 -28 -55 -104 -59 -137 -8 -16 24
-18 53 -18 228 0 208 4 243 31 270 27 26 92 16 118 -18z"/>
<path d="M22787 9680 c-146 -26 -194 -145 -184 -458 5 -197 20 -257 76 -313
46 -47 103 -63 201 -57 89 5 143 30 180 84 26 39 49 134 50 202 l0 42 -84 0
-83 0 -7 -69 c-8 -80 -33 -121 -72 -121 -73 0 -84 37 -84 285 0 161 3 195 18
225 14 29 23 36 53 38 51 4 79 -32 79 -99 l0 -49 91 0 92 0 -7 58 c-15 124
-46 180 -121 213 -50 22 -135 30 -198 19z"/>
<path d="M23787 9680 c-143 -25 -197 -138 -197 -415 0 -225 33 -333 118 -383
43 -25 55 -27 152 -27 97 0 109 2 153 28 84 50 117 154 117 378 0 309 -54 407
-235 422 -33 3 -82 2 -108 -3z m137 -173 c20 -27 21 -41 21 -241 0 -186 -2
-215 -18 -239 -33 -51 -110 -47 -136 8 -9 19 -16 79 -19 176 -8 265 10 333 91
327 30 -2 45 -10 61 -31z"/>
<path d="M24419 9680 c-90 -16 -149 -65 -170 -143 -32 -119 24 -219 190 -341
133 -98 153 -130 108 -181 -17 -21 -32 -27 -61 -27 -53 0 -77 27 -84 91 l-5
51 -78 0 -79 0 0 -51 c0 -153 82 -229 248 -229 89 0 153 23 196 70 19 22 39
52 43 67 15 52 8 136 -14 178 -26 49 -106 127 -195 189 -38 26 -77 59 -88 73
-61 77 31 164 105 100 18 -15 28 -36 32 -65 l6 -42 78 0 c90 0 87 -4 69 91
-14 72 -51 126 -103 149 -52 22 -137 31 -198 20z"/>
<path d="M26708 9680 c-144 -25 -190 -125 -191 -410 0 -322 59 -420 258 -420
89 0 134 16 181 64 46 48 63 97 66 196 l3 65 -81 3 -81 3 -7 -62 c-9 -80 -20
-107 -50 -120 -39 -18 -75 -3 -92 37 -12 29 -14 78 -12 249 3 193 5 215 22
234 12 13 31 21 52 21 46 0 74 -38 74 -101 l0 -49 85 0 85 0 0 59 c0 143 -70
221 -210 234 -30 3 -76 1 -102 -3z"/>
<path d="M27709 9680 c-87 -15 -153 -69 -180 -147 -20 -54 -20 -462 0 -518 37
-111 98 -155 223 -163 190 -11 288 71 288 242 l0 46 -84 0 -83 0 -6 -46 c-8
-79 -50 -115 -113 -100 -36 9 -55 57 -61 157 l-6 89 177 0 176 0 0 113 c-1
129 -11 187 -45 239 -45 68 -174 108 -286 88z m132 -170 c9 -14 20 -51 23 -82
l6 -58 -90 0 -90 0 0 38 c0 53 18 110 38 122 31 18 93 8 113 -20z"/>
<path d="M28356 9680 c-61 -11 -123 -53 -148 -101 -31 -61 -48 -166 -48 -304
0 -235 32 -342 118 -393 43 -25 55 -27 152 -27 97 0 109 2 152 27 91 54 125
182 115 435 -8 214 -38 295 -127 339 -52 26 -143 36 -214 24z m138 -173 c20
-27 21 -41 21 -241 0 -186 -2 -215 -18 -239 -31 -48 -103 -48 -134 -1 -13 21
-17 58 -21 189 -7 269 10 329 91 323 30 -2 45 -10 61 -31z"/>
<path d="M28989 9680 c-123 -22 -190 -111 -175 -234 10 -85 73 -165 208 -260
82 -58 122 -108 112 -140 -11 -37 -39 -58 -79 -58 -52 0 -77 27 -83 91 l-5 51
-78 0 -79 0 0 -51 c0 -109 52 -192 136 -217 51 -15 151 -16 208 -1 51 13 110
58 133 102 23 45 23 152 -1 196 -27 50 -103 128 -170 174 -106 72 -136 104
-136 148 0 103 140 89 156 -16 l6 -45 74 0 74 0 0 49 c0 54 -14 103 -42 143
-38 55 -157 86 -259 68z"/>
<path d="M14246 9665 c-74 -26 -118 -87 -131 -182 l-7 -53 91 0 91 0 0 34 c0
19 9 45 21 60 17 21 29 26 65 26 52 0 84 -26 84 -69 0 -45 -32 -74 -143 -129
-118 -58 -181 -112 -196 -169 -6 -21 -11 -72 -11 -113 1 -143 65 -220 185
-220 59 0 120 26 149 62 l23 30 7 -36 7 -36 89 0 90 0 -12 28 c-8 17 -14 136
-17 342 -5 267 -9 320 -22 345 -40 72 -95 95 -226 95 -57 -1 -114 -7 -137 -15z
m214 -480 c0 -107 -14 -154 -54 -180 -36 -24 -82 -12 -102 27 -20 39 -14 110
13 147 18 25 119 100 136 101 4 0 7 -43 7 -95z"/>
<path d="M16248 9670 c-84 -25 -133 -89 -145 -189 l-6 -51 86 0 86 0 7 38 c10
55 39 82 90 82 70 0 102 -53 67 -112 -14 -24 -44 -45 -119 -83 -129 -64 -167
-94 -195 -152 -35 -73 -33 -190 5 -259 35 -65 83 -94 155 -94 63 0 114 20 151
60 l28 30 6 -35 7 -35 88 0 89 0 -14 47 c-11 35 -14 114 -14 322 0 170 -4 291
-11 316 -14 50 -64 100 -114 114 -46 13 -207 13 -247 1z m202 -477 c0 -107
-13 -156 -47 -183 -32 -25 -64 -26 -93 -2 -35 29 -40 115 -8 162 22 32 121
110 140 110 4 0 8 -39 8 -87z"/>
<path d="M26001 9667 c-77 -25 -131 -107 -131 -199 l0 -38 84 0 83 0 6 42 c7
55 35 78 93 78 48 0 74 -24 74 -71 0 -44 -37 -78 -139 -127 -113 -55 -184
-117 -200 -177 -14 -52 -14 -153 0 -196 17 -51 57 -99 95 -115 74 -31 187 -6
232 50 l21 27 9 -33 8 -33 88 -3 c82 -3 88 -2 80 15 -5 10 -11 160 -14 333 -5
312 -5 316 -30 364 -38 74 -77 91 -215 93 -61 1 -125 -3 -144 -10z m215 -489
c-8 -124 -26 -168 -74 -182 -27 -7 -38 -5 -60 11 -60 45 -47 154 26 211 39 31
91 61 106 62 5 0 6 -43 2 -102z"/>
<path d="M15117 9663 c-4 -3 -7 -183 -7 -400 l0 -393 90 0 90 0 0 400 0 400
-83 0 c-46 0 -87 -3 -90 -7z"/>
<path d="M21960 9319 c0 -303 2 -356 16 -385 46 -96 190 -115 274 -35 l40 38
0 -34 0 -33 90 0 90 0 -2 398 -3 397 -87 3 -86 3 -4 -300 c-3 -286 -4 -301
-24 -328 -28 -37 -82 -43 -110 -12 -18 20 -19 40 -22 330 l-3 309 -84 0 -85 0
0 -351z"/>
<path d="M4342 7830 c-168 -17 -265 -61 -367 -164 -141 -144 -190 -296 -216
-679 -14 -213 -6 -615 17 -787 18 -144 51 -266 94 -350 41 -81 145 -189 219
-229 167 -89 454 -104 660 -35 l75 25 123 -123 123 -123 105 105 105 105 -120
120 -121 121 26 50 c35 67 70 216 87 359 17 158 18 759 0 910 -17 148 -56 305
-94 383 -47 95 -153 203 -241 247 -117 57 -299 82 -475 65z m234 -339 c54 -24
111 -94 129 -156 50 -174 69 -788 34 -1109 -5 -50 -12 -92 -14 -94 -3 -3 -22
15 -44 39 l-40 44 -100 -105 -99 -105 56 -57 c31 -32 53 -61 49 -64 -4 -4 -40
-9 -82 -12 -66 -4 -81 -2 -128 22 -61 29 -101 78 -122 148 -33 110 -40 230
-40 658 1 541 14 641 97 736 18 21 51 45 73 55 55 25 175 25 231 0z"/>
<path d="M12137 7783 c-91 -144 -217 -355 -217 -363 0 -6 36 -10 83 -10 l82 0
125 117 c69 64 167 156 219 205 l93 88 -181 0 -181 0 -23 -37z"/>
<path d="M14790 6690 l0 -1091 438 3 c408 4 442 6 514 26 42 11 95 30 119 42
129 66 231 253 274 503 35 205 43 785 14 1018 -23 193 -83 333 -185 437 -65
65 -123 98 -229 128 -52 15 -119 18 -502 22 l-443 3 0 -1091z m788 742 c76
-40 126 -133 153 -282 21 -115 19 -828 -3 -930 -22 -104 -52 -178 -89 -223
-54 -66 -73 -71 -271 -75 l-178 -4 0 772 0 772 173 -4 c156 -3 176 -5 215 -26z"/>
<path d="M19900 6690 l0 -1090 570 0 570 0 0 185 0 185 -370 0 -370 0 0 905 0
905 -200 0 -200 0 0 -1090z"/>
<path d="M7241 7265 c-197 -44 -320 -164 -366 -357 -40 -167 -39 -757 1 -948
45 -214 163 -344 354 -391 34 -9 108 -14 195 -13 145 0 212 12 310 54 50 21
134 95 164 144 47 77 90 284 76 368 l-7 38 -173 0 -174 0 -5 -32 c-3 -18 -8
-60 -11 -93 -7 -76 -40 -143 -84 -172 -26 -18 -48 -23 -97 -23 -59 0 -67 3
-103 35 -24 22 -46 54 -55 82 -19 56 -39 244 -34 333 l3 65 374 3 373 2 -5
238 c-4 198 -8 250 -25 314 -50 185 -146 288 -321 345 -67 22 -308 27 -390 8z
m269 -293 c59 -31 83 -94 88 -229 l5 -113 -188 0 -188 0 5 108 c9 188 56 251
188 252 35 0 68 -7 90 -18z"/>
<path d="M8570 7264 c-147 -32 -265 -123 -311 -242 -33 -86 -38 -227 -9 -311
54 -160 187 -300 467 -490 112 -76 189 -157 199 -207 20 -108 -79 -197 -201
-179 -101 16 -143 75 -152 216 l-6 89 -168 0 -169 0 -1 -32 c-8 -309 91 -471
326 -535 78 -21 222 -27 313 -14 208 31 333 116 393 268 19 47 23 78 23 168 1
108 0 113 -36 185 -70 141 -172 241 -407 401 -140 94 -215 158 -236 200 -21
40 -19 117 4 155 38 62 144 83 228 45 55 -25 84 -81 91 -173 l5 -68 170 0 169
0 -7 78 c-18 204 -79 326 -200 397 -104 61 -327 84 -485 49z"/>
<path d="M9915 7265 c-202 -44 -321 -154 -370 -340 -23 -90 -35 -249 -35 -471
0 -465 41 -647 176 -774 66 -62 139 -97 242 -116 234 -41 488 15 591 132 78
89 121 226 121 384 l0 80 -180 0 -180 0 0 -42 c0 -176 -68 -278 -187 -278
-138 0 -181 81 -190 358 l-6 162 378 0 378 0 -6 218 c-8 330 -43 458 -156 566
-68 64 -118 91 -218 117 -90 23 -264 25 -358 4z m249 -289 c69 -29 93 -86 103
-243 l6 -103 -188 0 -187 0 4 113 c4 136 27 195 87 227 43 23 127 26 175 6z"/>
<path d="M11583 7266 c-90 -28 -155 -87 -227 -206 l-46 -74 0 127 0 127 -185
0 -185 0 0 -820 0 -820 195 0 194 0 3 523 c3 512 3 523 24 562 53 98 126 138
251 138 l83 0 0 229 0 228 -32 -1 c-18 0 -52 -6 -75 -13z"/>
<path d="M13019 7270 c-175 -28 -293 -103 -352 -224 -29 -58 -57 -183 -57
-251 l0 -45 185 0 185 0 0 58 c1 91 44 165 113 191 40 15 131 14 171 -3 43
-18 75 -63 82 -119 12 -88 -53 -171 -180 -231 -28 -13 -99 -46 -158 -74 -313
-147 -412 -277 -411 -542 1 -270 107 -431 311 -471 162 -31 337 31 427 152
l30 40 7 -38 c4 -21 12 -55 18 -75 l11 -38 185 0 c173 0 186 1 179 18 -41 95
-40 74 -45 702 -5 527 -8 612 -23 663 -47 159 -119 229 -282 272 -71 19 -314
28 -396 15z m331 -1008 c0 -257 -23 -338 -114 -393 -42 -26 -130 -26 -173 1
-54 32 -68 71 -68 185 0 121 15 155 103 236 50 47 223 159 245 159 4 0 7 -85
7 -188z"/>
<path d="M16814 7260 c-40 -10 -94 -30 -121 -43 -194 -99 -274 -369 -260 -882
13 -504 105 -688 380 -763 87 -23 309 -23 396 2 283 78 376 289 374 856 -2
646 -142 851 -583 849 -79 0 -137 -6 -186 -19z m296 -300 c73 -52 84 -122 84
-540 1 -448 -12 -518 -107 -560 -55 -25 -110 -25 -163 1 -87 41 -104 139 -104
581 1 414 14 481 101 526 56 30 141 26 189 -8z"/>
<path d="M18191 7270 c-237 -50 -352 -174 -368 -396 -11 -152 50 -281 201
-429 45 -44 124 -109 175 -145 200 -139 252 -181 281 -227 37 -59 40 -115 8
-163 -41 -59 -70 -74 -146 -74 -77 0 -125 22 -154 71 -18 31 -38 133 -38 196
l0 37 -171 0 -172 0 6 -112 c9 -186 58 -300 163 -380 89 -68 250 -105 412 -95
290 19 451 148 481 387 30 233 -90 401 -469 658 -194 131 -236 182 -228 274
11 110 135 163 248 106 61 -31 90 -88 90 -175 l0 -63 171 0 172 0 -6 88 c-17
228 -104 359 -282 423 -47 17 -88 22 -195 25 -74 2 -155 -1 -179 -6z"/>
<path d="M21635 7270 c-255 -41 -385 -180 -402 -432 l-6 -88 187 0 186 0 0 63
c0 127 69 197 193 197 67 0 121 -21 144 -56 24 -38 35 -101 23 -144 -19 -70
-74 -111 -304 -225 -298 -148 -369 -211 -419 -370 -17 -56 -22 -94 -21 -190 0
-172 32 -271 120 -365 144 -154 440 -142 592 25 28 30 53 55 55 55 3 0 8 -21
12 -47 15 -100 -1 -93 209 -93 l184 0 -21 53 c-21 51 -22 68 -28 657 -5 532
-7 612 -23 665 -47 166 -116 234 -282 280 -71 19 -312 28 -399 15z m332 -1027
c-4 -215 -11 -257 -50 -314 -37 -55 -82 -79 -146 -79 -111 0 -161 62 -161 198
0 124 35 195 132 269 53 42 206 133 222 133 4 0 6 -93 3 -207z"/>
<path d="M22927 7270 c-92 -24 -175 -93 -220 -183 -31 -65 -62 -185 -77 -297
-29 -228 -21 -657 15 -849 54 -279 163 -384 400 -385 129 0 182 21 260 106
l55 59 0 -83 c0 -104 -15 -200 -39 -247 -28 -53 -72 -76 -153 -76 -74 0 -112
19 -136 68 l-13 27 -186 0 -186 0 6 -49 c18 -154 125 -256 315 -303 73 -18
314 -14 396 6 149 36 258 112 310 215 61 120 60 93 63 1069 l4 892 -181 0
-180 0 0 -82 0 -82 -29 45 c-71 110 -149 152 -291 155 -52 2 -112 -1 -133 -6z
m323 -316 c88 -35 109 -108 117 -394 6 -224 -9 -478 -32 -558 -52 -173 -264
-174 -312 -2 -11 41 -17 127 -20 332 -8 429 12 560 96 615 40 27 94 30 151 7z"/>
<path d="M26083 7265 c-85 -26 -159 -83 -215 -165 -17 -24 -17 -23 -17 58 l-1
82 -185 0 -185 0 0 -820 0 -820 190 0 190 0 0 563 c0 312 4 588 10 621 19 115
63 166 153 174 58 5 97 -9 131 -47 41 -45 46 -115 46 -728 l0 -583 186 0 185
0 -3 693 c-4 632 -6 697 -22 747 -38 118 -111 193 -220 225 -61 18 -186 18
-243 0z"/>
<path d="M27261 7265 c-129 -24 -204 -60 -273 -131 -65 -68 -117 -218 -118
-336 l0 -48 185 0 185 0 0 48 c0 65 16 115 47 153 35 42 79 59 150 59 105 0
163 -49 170 -142 8 -105 -59 -170 -268 -263 -378 -168 -479 -291 -479 -580 0
-174 36 -282 125 -371 73 -73 141 -98 270 -98 77 0 113 5 158 21 73 27 146 81
183 134 l29 42 8 -39 c4 -22 12 -56 18 -76 l10 -38 184 0 c102 0 185 1 185 3
0 1 -10 27 -22 57 -22 54 -23 63 -28 665 -6 592 -7 612 -28 675 -44 132 -108
201 -225 239 -129 42 -318 53 -466 26z m356 -1007 c-5 -156 -10 -206 -27 -258
-33 -105 -86 -150 -175 -150 -106 0 -156 56 -163 180 -10 167 55 252 298 393
77 45 74 51 67 -165z"/>
<path d="M28601 7265 c-199 -44 -313 -160 -343 -349 -15 -97 -1 -175 46 -271
67 -135 180 -245 411 -405 138 -94 157 -110 196 -164 35 -47 40 -120 12 -168
-53 -88 -209 -102 -280 -24 -39 42 -53 90 -53 184 l0 72 -176 0 -177 0 6 -107
c12 -223 85 -356 233 -425 172 -80 450 -74 616 14 117 62 189 170 209 314 31
218 -94 405 -421 628 -190 130 -234 168 -259 219 -40 82 -16 161 59 200 47 25
148 19 187 -9 44 -32 71 -90 78 -166 l7 -68 164 0 164 0 0 63 c0 34 -7 93 -15
132 -38 181 -142 289 -317 330 -79 18 -261 18 -347 0z"/>
<path d="M5482 6528 l3 -713 24 -60 c33 -83 106 -154 186 -180 85 -28 220 -26
297 4 57 22 144 95 181 151 15 24 16 23 16 -52 l1 -78 185 0 185 0 0 820 0
820 -190 0 -190 0 0 -573 c0 -593 -4 -663 -41 -723 -54 -89 -217 -85 -264 6
-29 56 -34 172 -35 733 l0 557 -180 0 -181 0 3 -712z"/>
<path d="M11920 6420 l0 -820 190 0 190 0 0 820 0 820 -190 0 -190 0 0 -820z"/>
<path d="M24072 6523 l3 -718 29 -63 c35 -76 105 -143 174 -166 172 -59 364
-6 462 127 l35 47 3 -75 3 -75 184 0 185 0 0 820 0 820 -189 0 -190 0 -3 -607
-3 -608 -26 -56 c-31 -65 -70 -89 -146 -89 -57 0 -105 26 -127 68 -31 60 -36
157 -36 725 l0 567 -180 0 -181 0 3 -717z"/>
</g>
</svg>
